Coordinates
version=1
nRows=11
nColumns=40
inDegrees=yes

Units are S.I. units (second, meters, Newtons, ...)
Angles are in degrees.

endheader
time	pelvis_tilt	pelvis_list	pelvis_rotation	pelvis_tx	pelvis_ty	pelvis_tz	hip_flexion_r	hip_adduction_r	hip_rotation_r	knee_angle_r	knee_angle_r_beta	ankle_angle_r	subtalar_angle_r	mtp_angle_r	hip_flexion_l	hip_adduction_l	hip_rotation_l	knee_angle_l	knee_angle_l_beta	ankle_angle_l	subtalar_angle_l	mtp_angle_l	lumbar_extension	lumbar_bending	lumbar_rotation	arm_flex_r	arm_add_r	arm_rot_r	elbow_flex_r	pro_sup_r	wrist_flex_r	wrist_dev_r	arm_flex_l	arm_add_l	arm_rot_l	elbow_flex_l	pro_sup_l	wrist_flex_l	wrist_dev_l
     48.26000000	     -5.62648653	     -5.12160083	    -11.32710070	      0.89629312	      0.92762649	      0.44723913	     26.26188570	      0.84539028	     -6.34981324	     20.71607738	     20.71607738	      4.96225976	      2.82628425	     -1.51961175	      7.35251015	     -4.73825361	    -13.43734624	     19.75581108	     19.75581108	     18.92927694	    -14.35620661	      3.36931314	    -11.35466079	      8.57302230	      0.79572808	    -17.19952781	    -13.07444168	    -23.32663717	     24.72078071	     47.04442501	      0.00000000	      0.00000000	     31.73419252	    -22.89143727	     -5.05845450	     65.62371830	     47.46601397	      0.00000000	      0.00000000
     48.27971429	     -5.73173781	     -4.83270979	    -11.72841710	      0.89614669	      0.92635701	      0.45053158	     25.61743646	      1.07235164	     -7.04803678	     17.33781314	     17.33781314	      4.49166457	      5.84981180	     -0.18018726	      6.77751868	     -4.56943007	    -13.97578224	     19.33307802	     19.33307802	     19.15304893	    -14.06093227	      2.94460738	    -11.30588082	      8.38601733	      0.91422836	    -17.18631859	    -12.99660141	    -23.47490397	     25.07853210	     47.03746955	      0.00000000	      0.00000000	     32.87093465	    -23.16834996	     -5.38373495	     66.56458005	     47.51601749	      0.00000000	      0.00000000
     48.29942857	     -5.77996439	     -4.50917880	    -12.07356911	      0.89648205	      0.92489015	      0.45396413	     25.19176121	      1.17955420	     -7.72688358	     15.10583480	     15.10583480	      4.11216409	      8.29394457	      1.00715968	      6.17065694	     -4.35806038	    -14.48432960	     19.00705551	     19.00705551	     19.41518878	    -13.80490300	      2.45988875	    -11.22680323	      8.20642007	      1.03719306	    -17.02742602	    -12.96650465	    -23.62555359	     25.56826425	     47.02586193	      0.00000000	      0.00000000	     33.92052930	    -23.43689561	     -5.78178914	     67.44981342	     47.56927373	      0.00000000	      0.00000000
     48.31914286	     -5.77897407	     -4.33231859	    -12.38680858	      0.89721419	      0.92361355	      0.45762905	     24.81353948	      1.34780068	     -8.54764632	     13.74522056	     13.74522056	      3.78737261	     10.50586521	      2.13664908	      5.41348434	     -4.29286922	    -14.98713780	     18.58723188	     18.58723188	     19.59113418	    -13.48790772	      1.86427706	    -11.27160392	      8.22154863	      1.14720077	    -16.78581351	    -12.97794313	    -23.84602801	     26.31372854	     47.00687609	      0.00000000	      0.00000000	     34.68831362	    -23.53131738	     -6.36385345	     68.39533717	     47.63523206	      0.00000000	      0.00000000
     48.33885714	     -5.81402414	     -4.14571647	    -12.62504155	      0.89839826	      0.92232864	      0.46158176	     24.65580926	      1.49328004	     -8.94745206	     13.27572266	     13.27572266	      3.53085633	     11.47783229	      2.52717104	      4.69452219	     -4.22305611	    -15.35588538	     18.20249238	     18.20249238	     19.82757856	    -13.25694697	      1.37548502	    -11.12879118	      8.17796435	      1.21077328	    -16.30950874	    -12.88763661	    -24.00951646	     27.05066492	     46.98412986	      0.00000000	      0.00000000	     35.23353403	    -23.52888525	     -6.99987613	     69.12875930	     47.69929779	      0.00000000	      0.00000000
     48.35857143	     -5.97966815	     -4.04678164	    -12.77300139	      0.89989239	      0.92101407	      0.46579759	     24.67719872	      1.73262284	     -9.00509302	     13.39062416	     13.39062416	      3.38596937	     11.48391605	      2.49714179	      4.22964387	     -4.29196318	    -15.39753738	     18.09536138	     18.09536138	     20.17696071	    -13.32884911	      1.26503417	    -10.75482654	      8.27876211	      1.35100493	    -15.75642475	    -12.86054908	    -23.99037945	     27.29253368	     46.97597206	      0.00000000	      0.00000000	     35.60632275	    -23.53843802	     -7.07199499	     69.31033291	     47.71028803	      0.00000000	      0.00000000
     48.37828571	     -5.81901905	     -3.95907820	    -12.84774223	      0.90187237	      0.92044083	      0.47013457	     24.53775040	      1.83753943	     -8.84556431	     14.24316301	     14.24316301	      3.33446087	     11.00456222	      1.56440336	      3.16846967	     -4.27338278	    -15.68262155	     17.54393855	     17.54393855	     20.33201802	    -12.93075955	      1.25069356	    -10.81008064	      8.35357207	      1.42467043	    -14.87565671	    -12.78525572	    -24.02492721	     27.82116676	     46.95813607	      0.00000000	      0.00000000	     36.01899704	    -23.42614414	     -7.62016279	     69.77278413	     47.76048253	      0.00000000	      0.00000000
     48.39800000	     -5.95489693	     -4.04232842	    -12.86617851	      0.90404901	      0.91983174	      0.47477293	     24.37807521	      2.16977396	     -8.85064513	     14.78998795	     14.78998795	      3.35272746	     10.73158474	      1.22720695	      2.57530299	     -4.55996357	    -15.69669895	     17.37586225	     17.37586225	     20.53732597	    -12.93248841	      1.26226235	    -10.43874270	      8.65364958	      1.56403489	    -14.08842663	    -12.73398959	    -23.99006630	     28.13235404	     46.94740180	      0.00000000	      0.00000000	     36.13490455	    -23.19650677	     -7.65276961	     69.90176297	     47.76578162	      0.00000000	      0.00000000
     48.41771429	     -5.69279648	     -3.87368183	    -12.81521492	      0.90658142	      0.91963873	      0.47942248	     24.45533554	      2.16059127	     -7.98287149	     16.63033532	     16.63033532	      3.58550287	      8.83938200	     -0.58396827	      1.49076748	     -4.48582829	    -15.92670349	     16.99429415	     16.99429415	     20.67353441	    -12.45650395	      1.50470462	    -10.52337298	      8.63627372	      1.48869426	    -13.25659348	    -12.72897213	    -24.04324699	     28.55130329	     46.93470249	      0.00000000	      0.00000000	     36.06908124	    -23.10718011	     -8.36959397	     70.20827092	     47.82117281	      0.00000000	      0.00000000
     48.43742857	     -5.62776986	     -3.87557320	    -12.66016348	      0.90913646	      0.91957092	      0.48429568	     24.29558583	      2.42886404	     -7.18646458	     17.75190365	     17.75190365	      3.56419703	      6.93566909	     -2.40360397	      0.82488327	     -4.73622326	    -15.98906325	     17.06833539	     17.06833539	     20.84864520	    -12.17536908	      1.84309923	    -10.34651158	      8.79611766	      1.30577279	    -12.32621487	    -12.71707790	    -24.09718931	     28.94706477	     46.92133498	      0.00000000	      0.00000000	     35.72125075	    -22.89955701	     -9.08209258	     70.54124061	     47.87441053	      0.00000000	      0.00000000
     48.45714286	     -5.45387256	     -3.98840996	    -12.38615776	      0.91182969	      0.91997061	      0.48913329	     23.86167306	      2.68275931	     -6.88454118	     18.70017711	     18.70017711	      3.92681636	      5.92260425	     -3.26159359	      0.16920987	     -5.13585806	    -15.89926943	     17.40184469	     17.40184469	     20.84848926	    -12.07371513	      2.03559142	    -10.31224558	      9.03840253	      1.23806863	    -11.60796158	    -12.80942962	    -24.11255207	     29.21371386	     46.91305650	      0.00000000	      0.00000000	     35.48316790	    -22.71066115	     -9.28808803	     70.62633921	     47.88856838	      0.00000000	      0.00000000
